<svg width="14" height="13" viewBox="0 0 14 13" fill="none" xmlns="http://www.w3.org/2000/svg">
<path fill-rule="evenodd" clip-rule="evenodd" d="M4.5 8C6.433 8 8 6.433 8 4.5C8 2.567 6.433 1 4.5 1C2.567 1 1 2.567 1 4.5C1 6.433 2.567 8 4.5 8ZM4.5 9C6.98528 9 9 6.98528 9 4.5C9 2.01472 6.98528 0 4.5 0C2.01472 0 0 2.01472 0 4.5C0 6.98528 2.01472 9 4.5 9Z" fill="black" fill-opacity="0.5"/>
<path fill-rule="evenodd" clip-rule="evenodd" d="M9 4.5C9 6.98528 6.98528 9 4.5 9C2.01472 9 0 6.98528 0 4.5C0 2.01472 2.01472 0 4.5 0C6.98528 0 9 2.01472 9 4.5ZM4.5 8C6.433 8 8 6.433 8 4.5C8 2.567 6.433 1 4.5 1C2.567 1 1 2.567 1 4.5C1 6.433 2.567 8 4.5 8Z" fill="black"/>
<path fill-rule="evenodd" clip-rule="evenodd" d="M11.6546 11.6178L7.00006 6.99999L7.70996 6.29568L12.3645 10.9135L11.6546 11.6178Z" fill="black" fill-opacity="0.5"/>
<path fill-rule="evenodd" clip-rule="evenodd" d="M7.70996 5.5914L13.0744 10.9135L11.6546 12.3221L6.29016 7L7.70996 5.5914Z" fill="black"/>
</svg>
