<?xml version="1.0" standalone="no"?>
<!DOCTYPE svg PUBLIC "-//W3C//DTD SVG 20010904//EN"
 "http://www.w3.org/TR/2001/REC-SVG-20010904/DTD/svg10.dtd">
<svg version="1.0" xmlns="http://www.w3.org/2000/svg"
 width="126.000000pt" height="126.000000pt" viewBox="0 0 126.000000 126.000000"
 preserveAspectRatio="xMidYMid meet">

<g transform="translate(0.000000,126.000000) scale(0.100000,-0.100000)"
fill="#000000" stroke="none">
<path d="M267 1160 c-96 -25 -192 -106 -236 -200 -47 -101 -31 -248 37 -334
27 -35 552 -526 562 -526 10 0 535 491 562 526 68 86 84 233 37 334 -33 70
-109 146 -179 179 -45 21 -70 25 -135 25 -99 0 -167 -28 -238 -98 l-47 -48
-47 48 c-27 26 -71 58 -99 71 -59 27 -159 37 -217 23z"/>
</g>
</svg>
